<svg id="Capa_1" enable-background="new 0 0 410.804 410.804" height="512" viewBox="0 0 410.804 410.804" width="512" xmlns="http://www.w3.org/2000/svg"><g><g fill="#2f4859"><path d="m395.629 29.918 3.64-6.419c.298-.525.965-.709 1.49-.412l5.236 2.97c.525.298.709.965.412 1.49l-3.64 6.419c-.298.525-.965.709-1.49.412l-5.236-2.97c-.526-.298-.71-.965-.412-1.49z"/><path d="m385.077 47.507 3.64-6.419c.298-.525.965-.709 1.49-.412l5.236 2.97c.525.298.709.965.412 1.49l-3.64 6.419c-.298.525-.965.709-1.49.412l-5.236-2.97c-.525-.298-.709-.965-.412-1.49z"/><path d="m372.582 3.783 6.419-3.64c.525-.298 1.192-.114 1.49.412l2.97 5.236c.298.525.114 1.192-.411 1.49l-6.419 3.64c-.525.298-1.192.114-1.49-.412l-2.97-5.236c-.298-.526-.114-1.193.411-1.49z"/><path d="m354.992 14.334 6.419-3.64c.525-.298 1.192-.114 1.49.412l2.97 5.236c.298.525.114 1.192-.411 1.49l-6.419 3.64c-.525.298-1.192.114-1.49-.412l-2.97-5.236c-.298-.525-.114-1.192.411-1.49z"/></g><path d="m200.507 227.118s-10.821 25.698 5.41 35.845 34.828-7.102 39.918-10.799 12.849 3.382 1.354 20.288-35.508 19.951-45.312 31.092c-11.694 12.979-19.02 29.302-20.946 46.666-2.333 26.889-32.125 70.689-74.735 58.498-42.609-12.192-94.027-75.073-100.791-105.501s16.955-66.573 54.441-73.381c30.538-5.552 63.24-21.984 73.381-42.957s26.041-64.588 58.84-56.812c0 0 3.382 5.41-9.788 22.659s-11.163 42.267 10.478 46.323z" fill="#fcd462"/><path d="m385.386 56.687 19.091-33.485c2.032-3.565 1.431-8.048-1.468-10.951l-8.091-8.091c-2.904-2.899-7.387-3.5-10.951-1.468l-33.49 19.091c-1.419.805-2.594 1.979-3.399 3.399l-17.64 30.935-205.265 197.504 29.363 29.363 197.517-205.259 30.929-17.64c1.421-.804 2.597-1.979 3.404-3.398z" fill="#3a556a"/><path d="m75.251 343.391 272.033-272.034 29.483-19.646.31.462-29.439 19.614-271.99 272.001z" fill="#ebf0f3"/><path d="m63.375 331.515 272.034-272.033 19.581-29.396.462.31-19.614 29.439-272.066 272.077z" fill="#ebf0f3"/><path d="m8.083 189.085h419.393v.555h-419.393z" fill="#ebf0f3" transform="matrix(.707 -.707 .707 .707 -70.114 209.456)"/><path d="m67.491 309.736h13.752v46.095h-13.752z" fill="#3a556a" transform="matrix(.707 -.707 .707 .707 -213.531 150.056)"/></g></svg>